<?xml version="1.0"?>
<svg xmlns="http://www.w3.org/2000/svg" width="900" height="254" viewBox="0 0 900 254" font-family="&#39;JetBrains Mono&#39;, ui-monospace, &#39;SF Mono&#39;, Menlo, monospace">
  
  <g transform="translate(32 79) scale(1.5)">
    <line x1="6" y1="32" x2="58" y2="32" stroke="#112418" stroke-width="1.25" stroke-linecap="round"></line>
    <line x1="32" y1="32" x2="32" y2="10" stroke="#112418" stroke-width="1.5" stroke-linecap="round"></line>
    <line x1="32" y1="14" x2="24" y2="8" stroke="#112418" stroke-width="1.25" stroke-linecap="round"></line>
    <line x1="32" y1="14" x2="40" y2="8" stroke="#112418" stroke-width="1.25" stroke-linecap="round"></line>
    <line x1="32" y1="20" x2="22" y2="14" stroke="#112418" stroke-width="1.25" stroke-linecap="round"></line>
    <line x1="32" y1="20" x2="42" y2="14" stroke="#112418" stroke-width="1.25" stroke-linecap="round"></line>
    <line x1="32" y1="26" x2="25" y2="22" stroke="#112418" stroke-width="1.25" stroke-linecap="round"></line>
    <line x1="32" y1="26" x2="39" y2="22" stroke="#112418" stroke-width="1.25" stroke-linecap="round"></line>
    <line x1="32" y1="32" x2="32" y2="54" stroke="#6b8a6e" stroke-width="1" stroke-linecap="round"></line>
    <line x1="32" y1="38" x2="22" y2="48" stroke="#6b8a6e" stroke-width="1" stroke-linecap="round"></line>
    <line x1="32" y1="38" x2="42" y2="48" stroke="#6b8a6e" stroke-width="1" stroke-linecap="round"></line>
    <line x1="32" y1="44" x2="16" y2="52" stroke="#6b8a6e" stroke-width="1" stroke-linecap="round"></line>
    <line x1="32" y1="44" x2="48" y2="52" stroke="#6b8a6e" stroke-width="1" stroke-linecap="round"></line>
    <line x1="22" y1="48" x2="14" y2="56" stroke="#6b8a6e" stroke-width="1" stroke-linecap="round"></line>
    <line x1="42" y1="48" x2="50" y2="56" stroke="#6b8a6e" stroke-width="1" stroke-linecap="round"></line>
    <line x1="32" y1="50" x2="28" y2="58" stroke="#6b8a6e" stroke-width="1" stroke-linecap="round"></line>
    <line x1="32" y1="50" x2="36" y2="58" stroke="#6b8a6e" stroke-width="1" stroke-linecap="round"></line>
    <circle cx="32" cy="32" r="1.6" fill="#112418"></circle>
  </g>
  <line x1="144" y1="87" x2="144" y2="167" stroke="#d6d2c5" stroke-width="1"></line>
  <text x="172" y="142" font-size="64" font-weight="500" letter-spacing="-0.04em" fill="#112418">mori</text>
  <g transform="translate(172, 168)">
    <circle cx="0" cy="0" r="3" fill="#c89a3a"></circle>
    <text x="12" y="3" font-size="12" letter-spacing="0.12em" fill="#5a5f5b">A GOVERNED SHARED MEMORY LAYER FOR AI CODING AGENTS</text>
  </g>
  <text x="876" y="34" text-anchor="end" font-size="10" letter-spacing="0.16em" fill="#5a5f5b">森 · FOREST</text>
</svg>